HIERARCHY
ROOT Hips
{
	OFFSET 0.00000 0.00000 0.00000
	CHANNELS 6 Xposition Yposition Zposition Yrotation Zrotation Xrotation 
	JOINT Lumbar
	{
		OFFSET 0 0 0
		CHANNELS 3 Zrotation Xrotation Yrotation
		JOINT Neck
		{
			OFFSET 0.00 0.2701 0.00
			CHANNELS 3 Zrotation Xrotation Yrotation
			End Site
			{
				OFFSET 0.00 0.1379 0.00
			}
		}
		JOINT RightShoulder
		{
			OFFSET 0.0119 0.2289 0.1181
			CHANNELS 3 Zrotation Xrotation Yrotation
			JOINT RightElbow
			{
				OFFSET 0.00 -0.1475 0.00
				CHANNELS 2 Zrotation Yrotation
				JOINT RightWrist
				{
					OFFSET 0.00 -0.1605 0.00
					CHANNELS 2 Zrotation Xrotation
					End Site
					{
						OFFSET 0.0040 -0.1068 0.0006
					}
				}
			}
		}
		JOINT LeftShoulder
		{
			OFFSET 0.0119 0.2289 -0.1181
			CHANNELS 3 Zrotation Xrotation Yrotation
			JOINT LeftElbow
			{
				OFFSET 0.00 -0.1475 0.00
				CHANNELS 2 Zrotation Yrotation
				JOINT LeftWrist
				{
					OFFSET 0.00 -0.1605 0.00
					CHANNELS 2 Zrotation Xrotation
					End Site
					{
						OFFSET 0.0040 -0.1068 -0.0006
					}
				}
			}
		}
	}
	JOINT RightHip
	{
		OFFSET 0.0316 -0.0424 0.0458
		CHANNELS 3 Zrotation Xrotation Yrotation
		JOINT RightKnee
		{
			OFFSET 0.00 -0.2438 0.00
			CHANNELS 1 Zrotation
			JOINT RightAnkle
			{
				OFFSET 0.00 -0.2449 0.00
				CHANNELS 3 Zrotation Xrotation Yrotation
				End Site
				{
					OFFSET 0.1237 -0.0542 0.0051
				}
			}
		}
	}
	JOINT LeftHip
	{
		OFFSET 0.0316 -0.0424 -0.0458
		CHANNELS 3 Zrotation Xrotation Yrotation
		JOINT LeftKnee
		{
			OFFSET 0.00 -0.2438 0.00
			CHANNELS 1 Zrotation
			JOINT LeftAnkle
			{
				OFFSET 0.00 -0.2449 0.00
				CHANNELS 3 Zrotation Xrotation Yrotation
				End Site
				{
					OFFSET 0.1237 -0.0542 -0.0051
				}
			}
		}
	}
}
MOTION
Frames: 35
Frame Time: 0.02
-0 0.57926 -0 101.44921 0 -7.89714 -2.25487 2.88797 -4.05768 -44.94751 5.00511 3.4669 39.88698 -20.12084 12.80521 14.04738 83.28617 -2.56587 -6.43355 42.97988 7.41358 -8.73573 8.91929 -86.75498 -3.66919 2.75934 4.49164 6.94579 16.60833 -10.11939 -18.73107 -1.51336 -8.8732 -10.24643 0.71609 27.37991 2.50247 -5.91902 3.25899 10.20813
0.00078 0.57926 0.00111 101.32309 0 -7.85924 -2.72634 2.6978 -4.13406 -44.59403 5.09419 3.57089 39.35527 -20.20074 12.96021 14.06867 83.2281 -2.57625 -6.44533 42.54164 7.33469 -8.29999 8.77764 -86.34188 -3.60819 2.71416 4.49473 7.01315 15.39669 -9.85582 -18.76196 -1.50138 -9.00161 -10.10769 0.72852 27.29564 2.41165 -5.88763 3.3107 10.36424
0.00156 0.57925 0.00221 101.19741 0 -7.82128 -3.19801 2.50798 -4.21021 -44.24149 5.18292 3.67426 38.82516 -20.28058 13.11663 14.08958 83.17064 -2.58641 -6.45679 42.10641 7.25611 -7.86887 8.63687 -85.93013 -3.54763 2.66958 4.49901 7.08046 14.19386 -9.59567 -18.79243 -1.48941 -9.12939 -9.9694 0.74118 27.21087 2.321 -5.85664 3.36199 10.52019
0.00235 0.57925 0.00332 101.07124 0 -7.78287 -3.67394 2.31818 -4.28652 -43.8846 5.27018 3.7735 38.29357 -20.35766 13.27824 14.10931 83.11545 -2.59612 -6.46726 41.67131 7.18052 -7.44706 8.49869 -85.52137 -3.48835 2.62676 4.5078 7.14789 13.01292 -9.34536 -18.82201 -1.47729 -9.25509 -9.83093 0.75459 27.12156 2.22904 -5.82628 3.41226 10.67988
0.0031 0.57924 0.00445 100.94644 0 -7.74703 -4.1259 2.12884 -4.36237 -43.54514 5.3641 3.89144 37.76657 -20.44537 13.40992 14.13544 83.04878 -2.6086 -6.48319 41.22633 7.09212 -6.97003 8.34732 -85.09872 -3.42243 2.5744 4.49236 7.21428 11.71427 -9.04141 -18.85693 -1.46584 -9.39084 -9.69267 0.76363 27.05427 2.14269 -5.79176 3.46809 10.82318
0.00394 0.57924 0.00551 100.81968 0 -7.70569 -4.62906 1.93835 -4.43883 -43.17296 5.44462 3.97186 37.23262 -20.51326 13.60642 14.14794 83.00609 -2.61497 -6.4874 40.80895 7.02886 -6.61428 8.22363 -84.70456 -3.3705 2.54241 4.52843 7.28308 10.66708 -8.85223 -18.88012 -1.45306 -9.50589 -9.55459 0.78216 26.94184 2.04545 -5.76666 3.51202 10.99867
0.00506 0.57931 0.00645 100.67735 0 -7.64795 -5.28512 1.74233 -4.52169 -42.66428 5.48228 3.92872 36.64478 -20.50296 13.98 14.12196 83.03389 -2.60583 -6.45947 40.40586 7.05317 -6.56219 8.1794 -84.39227 -3.35834 2.56691 4.7104 7.35809 10.29955 -8.97771 -18.8731 -1.43555 -9.55882 -9.40914 0.82631 26.68448 1.90658 -5.76296 3.52383 11.2913
0.00629 0.5794 0.00732 100.53509 0 -7.5847 -5.99149 1.54546 -4.60442 -42.13024 5.50747 3.85113 36.05549 -20.47679 14.41953 14.08217 83.08521 -2.59008 -6.41955 40.04134 7.09976 -6.63829 8.16279 -84.10804 -3.36014 2.61209 4.94357 7.43555 10.18754 -9.21936 -18.85352 -1.41692 -9.59165 -9.2652 0.88021 26.38445 1.75856 -5.76961 3.52349 11.6118
0.00746 0.57948 0.0082 100.3988 0 -7.52484 -6.66825 1.35014 -4.68425 -41.63755 5.54228 3.80249 35.48889 -20.47335 14.83099 14.04942 83.12298 -2.57665 -6.38506 39.69929 7.12414 -6.67592 8.13118 -83.80823 -3.35473 2.64756 5.15156 7.51247 9.9686 -9.40986 -18.83864 -1.39941 -9.63717 -9.1255 0.9301 26.11748 1.62221 -5.77452 3.52829 11.90126
0.00864 0.57956 0.00919 100.23578 0 -7.46175 -7.37346 1.14956 -4.77651 -41.02015 5.56061 3.69853 34.83003 -20.40509 15.23548 14.01417 83.17258 -2.56683 -6.35104 39.18946 7.1987 -6.62976 8.1088 -83.51948 -3.35272 2.68386 5.36891 7.58759 9.71359 -9.59449 -18.82928 -1.37912 -9.66838 -8.96493 0.97818 25.79505 1.45466 -5.76695 3.5348 12.26726
0.00984 0.57964 0.00993 100.1302 0 -7.40346 -8.0313 0.96022 -4.8429 -40.65507 5.61005 3.70063 34.36218 -20.46723 15.66875 13.97997 83.20343 -2.54703 -6.31269 39.03702 7.17504 -6.78896 8.07516 -83.21554 -3.34724 2.72394 5.57728 7.66626 9.5911 -9.81758 -18.80383 -1.36463 -9.72374 -8.84832 1.03235 25.57523 1.34932 -5.78781 3.53474 12.48167
0.0111 0.57972 0.01006 100.1686 0 -7.36514 -8.54667 0.79849 -4.83744 -41.00414 5.75005 4.0116 34.42855 -20.89957 16.17781 13.9593 83.17392 -2.50904 -6.26947 39.87116 6.86697 -7.47854 7.99209 -82.85275 -3.32641 2.76462 5.7619 7.76098 9.79958 -10.12962 -18.75067 -1.36399 -9.85847 -8.85154 1.10113 25.67289 1.42271 -5.88459 3.52052 12.26021
0.0124 0.5798 0.00993 100.26775 0 -7.33091 -9.01233 0.64915 -4.80608 -41.60539 5.92115 4.42851 34.68587 -21.46177 16.71129 13.93861 83.12514 -2.4599 -6.22148 41.06097 6.46133 -8.36992 7.89924 -82.47579 -3.30221 2.80948 5.93282 7.85801 10.12727 -10.47396 -18.67919 -1.36969 -10.01678 -8.89921 1.17583 25.8709 1.55794 -6.00945 3.49996 11.88707
0.01368 0.57987 0.00989 100.34839 0 -7.29122 -9.50065 0.49609 -4.78681 -42.08446 6.07736 4.79264 34.85168 -21.96133 17.22534 13.91341 83.08718 -2.4106 -6.173 42.0831 6.10468 -9.17419 7.818 -82.1116 -3.28085 2.85535 6.10157 7.9494 10.38252 -10.79662 -18.60718 -1.37409 -10.15918 -8.92726 1.24744 26.00737 1.662 -6.12172 3.48161 11.59043
0.01494 0.57997 0.00999 100.38973 0 -7.2663 -9.99135 0.33349 -4.76599 -42.59674 6.23768 5.17742 35.03788 -22.47866 17.77663 13.90761 83.04183 -2.38261 -6.13551 43.1359 5.7267 -9.96938 7.70605 -81.72074 -3.25368 2.88892 6.30904 8.0599 10.72451 -11.15423 -18.5722 -1.37173 -10.32274 -8.95275 1.32036 26.20947 1.77948 -6.23437 3.46551 11.26336
0.01626 0.58003 0.00973 100.5285 0 -7.21196 -10.46348 0.19553 -4.7425 -43.09744 6.39531 5.54193 35.22641 -22.98625 18.25558 13.86056 83.00635 -2.30832 -6.0739 44.20398 5.37282 -10.82237 7.65715 -81.38284 -3.23861 2.94977 6.43006 8.13157 10.90991 -11.44351 -18.45579 -1.38504 -10.44819 -8.99431 1.39274 26.29947 1.88282 -6.35182 3.4436 10.9626
0.01774 0.57996 0.00861 100.91204 0 -7.07274 -10.90517 0.10716 -4.71585 -43.52741 6.55281 5.84966 35.37991 -23.46801 18.52624 13.70865 83.00835 -2.10385 -5.94905 45.2679 5.08198 -11.84951 7.76938 -81.18488 -3.24949 3.07659 6.33137 8.09181 10.63956 -11.55021 -18.11999 -1.43964 -10.46148 -9.0668 1.45484 26.05305 1.93856 -6.48314 3.4054 10.77756
0.01927 0.57984 0.00712 101.39359 0 -6.90427 -11.32747 0.04603 -4.68783 -43.93306 6.7041 6.12916 35.52848 -23.92985 18.72352 13.51371 83.01993 -1.85438 -5.79972 46.32691 4.82338 -12.91619 7.9479 -81.04237 -3.27417 3.23205 6.14285 8.0137 10.20479 -11.58384 -17.70281 -1.50992 -10.43576 -9.15383 1.5178 25.69067 1.97545 -6.61641 3.36203 10.62325
0.02079 0.57975 0.00574 101.83607 0 -6.75094 -11.75338 -0.01743 -4.66178 -44.33472 6.84817 6.40484 35.67551 -24.37881 18.95557 13.3325 83.02324 -1.62859 -5.66023 47.36154 4.56839 -13.921 8.10632 -80.88077 -3.29785 3.37994 5.98511 7.95539 9.8406 -11.64115 -17.32225 -1.57323 -10.42898 -9.23656 1.5848 25.38353 2.01831 -6.74436 3.32217 10.4505
0.02228 0.57966 0.0046 102.2564 0 -6.59 -12.20177 -0.1228 -4.62899 -44.80792 7.03458 6.75303 35.844 -24.92311 19.18199 13.17549 83.04191 -1.38784 -5.52603 48.52176 4.23455 -15.11448 8.22306 -80.69301 -3.29902 3.50552 5.86985 7.88663 9.4996 -11.7399 -16.94236 -1.63589 -10.41858 -9.31336 1.63217 25.07045 2.07959 -6.89382 3.27689 10.29029
0.02383 0.57955 0.00288 102.7468 0 -6.43784 -12.59659 -0.13466 -4.61044 -45.12401 7.13234 6.94392 35.96558 -25.26461 19.40305 12.95834 83.03174 -1.1689 -5.375 49.41357 4.07183 -15.92648 8.44128 -80.57295 -3.35059 3.68366 5.64429 7.83113 9.06794 -11.73455 -16.54228 -1.7038 -10.4053 -9.40253 1.72196 24.73926 2.09059 -6.99633 3.24213 10.11455
0.0255 0.57942 -0.00024 103.39461 0 -6.31745 -12.87156 0.10582 -4.63015 -45.0025 6.97458 6.69091 35.94575 -25.03143 19.62001 12.58168 82.93416 -1.01072 -5.18423 49.57141 4.39234 -15.63306 8.93293 -80.62748 -3.5356 4.00465 5.14175 7.81634 8.44017 -11.45925 -16.10369 -1.78004 -10.40146 -9.54476 1.91649 24.39734 2.02037 -6.98769 3.23467 9.87962
0.02721 0.57927 -0.00394 104.11185 0 -6.20674 -13.08889 0.43914 -4.66475 -44.72403 6.72996 6.28291 35.88053 -24.5978 19.83444 12.14688 82.80825 -0.87784 -4.97736 49.45582 4.88128 -14.96112 9.52213 -80.74806 -3.77082 4.37611 4.53037 7.81721 7.72385 -11.08176 -15.64805 -1.86131 -10.39489 -9.6932 2.15584 24.03683 1.88766 -6.928 3.23869 9.63167
0.02891 0.57912 -0.00742 104.80452 0 -6.0914 -13.31793 0.7295 -4.69338 -44.52285 6.53296 5.95636 35.84347 -24.26817 20.05577 11.74111 82.69911 -0.74057 -4.77724 49.46036 5.28105 -14.48936 10.06126 -80.83773 -3.98524 4.72201 3.96516 7.8143 7.03792 -10.75091 -15.2022 -1.94192 -10.38385 -9.8255 2.38276 23.6795 1.75141 -6.87913 3.23935 9.39461
0.03059 0.57898 -0.0107 105.46981 0 -5.97627 -13.60859 1.0245 -4.71804 -44.29687 6.30134 5.58319 35.77385 -23.88365 20.25389 11.3222 82.57424 -0.5726 -4.57821 49.48469 5.73393 -13.90071 10.62927 -80.93317 -4.19366 5.08213 3.41051 7.79582 6.38688 -10.41604 -14.74538 -2.01667 -10.39403 -10.01992 2.57658 23.34795 1.75887 -6.88276 3.23153 9.13235
0.03231 0.57882 -0.01453 106.20902 0 -5.86304 -13.75601 1.33097 -4.75522 -44.08428 6.12131 5.26968 35.76218 -23.56583 20.49615 10.91818 82.47479 -0.47408 -4.37397 49.4 6.11734 -13.4645 11.15646 -81.03144 -4.42376 5.42156 2.80941 7.81418 5.6456 -10.06704 -14.3078 -2.10404 -10.36181 -10.07952 2.84947 22.95037 1.44049 -6.76471 3.2447 8.92557
0.03413 0.57862 -0.01966 107.1196 0 -5.75562 -13.53427 1.65066 -4.8165 -43.95719 6.10471 5.16731 35.91346 -23.48374 20.89914 10.5637 82.45658 -0.57106 -4.15484 49.10452 6.25425 -13.54441 11.57206 -81.122 -4.7235 5.71452 2.10513 7.9286 4.66582 -9.69714 -13.9334 -2.22991 -10.19577 -9.82219 3.3331 22.45891 0.33961 -6.32528 3.30791 8.81871
0.03598 0.57839 -0.02532 108.10402 0 -5.64921 -13.1681 1.97741 -4.89056 -43.8469 6.14301 5.12903 36.12584 -23.47554 21.33908 10.22779 82.46415 -0.73568 -3.93221 48.70391 6.31762 -13.78869 11.93808 -81.21248 -5.03932 5.98062 1.3586 8.07979 3.60109 -9.31819 -13.57842 -2.36734 -9.9901 -9.41809 3.8933 21.88865 -1.10565 -5.76521 3.39232 8.77763
0.03779 0.57816 -0.03076 109.06525 0 -5.54082 -12.86019 2.29841 -4.96402 -43.72278 6.15653 5.05574 36.31596 -23.4317 21.73837 9.8871 82.45707 -0.86271 -3.71387 48.33668 6.42353 -13.9576 12.31025 -81.30268 -5.33297 6.24363 0.63285 8.21593 2.58333 -8.94822 -13.21087 -2.49616 -9.81484 -9.04403 4.41732 21.29733 -2.46049 -5.25834 3.47101 8.74446
0.03968 0.57798 -0.03615 109.9877 0 -5.43992 -12.58171 2.63477 -5.01845 -43.62057 6.16673 5.00117 36.48246 -23.38867 22.24141 9.52786 82.46118 -1.01845 -3.48249 48.02261 6.49752 -14.12195 12.7556 -81.3977 -5.69032 6.57244 -0.10348 8.34681 1.52728 -8.55402 -12.8578 -2.63926 -9.5892 -8.82571 4.9522 20.93672 -3.53996 -4.75458 3.53562 8.55494
0.04142 0.57768 -0.04174 111.00439 0 -5.32259 -12.20799 2.93791 -5.11231 -43.4772 6.19745 4.92571 36.71173 -23.3652 22.53319 9.21372 82.44875 -1.13149 -3.27897 47.57404 6.61746 -14.33251 13.03476 -81.48036 -5.91919 6.75787 -0.82628 8.49564 0.53172 -8.20958 -12.48026 -2.75541 -9.45649 -8.24714 5.47772 20.08798 -5.27213 -4.21882 3.63189 8.70222
0.04282 0.57707 -0.04773 112.28881 0 -5.16746 -11.61077 3.16137 -5.33691 -43.22858 6.2761 4.76984 37.11126 -23.36867 22.26777 9.00943 82.38233 -1.09816 -3.1424 46.79948 6.88964 -14.69394 12.87272 -81.54083 -5.78025 6.54737 -1.50141 8.6979 -0.2717 -8.00486 -12.02323 -2.79342 -9.61343 -6.71846 5.99482 17.81733 -8.73309 -3.60327 3.83286 9.79958
0.04404 0.57634 -0.0539 113.65967 0 -4.99419 -10.92261 3.34802 -5.59536 -42.93536 6.37265 4.59252 37.56879 -23.39151 21.78276 8.85244 82.29901 -1.02159 -3.03628 45.88982 7.20879 -15.08592 12.54375 -81.58634 -5.51298 6.19447 -2.16081 8.91431 -1.01075 -7.85116 -11.54236 -2.80408 -9.86142 -4.8316 6.49243 15.07564 -12.83297 -2.96371 4.06123 11.2242
0.0453 0.57568 -0.06 114.97473 0 -4.8241 -10.27313 3.54212 -5.82263 -42.6565 6.45886 4.43085 37.99352 -23.4129 21.37409 8.68025 82.22475 -0.97253 -2.92316 45.03182 7.50025 -15.4246 12.28683 -81.6305 -5.31009 5.91083 -2.8269 9.11588 -1.78277 -7.67443 -11.07717 -2.82781 -10.05178 -3.10172 6.9756 12.61093 -16.63772 -2.3493 4.26162 12.4788
0.04676 0.57497 -0.06609 116.36508 0 -4.67564 -9.62807 3.77604 -6.11968 -42.40741 6.55788 4.24774 38.45189 -23.40745 21.06218 8.48055 82.14509 -0.89277 -2.78027 44.21544 7.81433 -15.93651 12.0437 -81.70897 -5.0819 5.60714 -3.49678 9.35483 -2.5458 -7.49619 -10.59209 -2.84917 -10.30725 -1.38719 7.56167 9.87799 -20.48999 -1.67111 4.52617 13.83674
